# AST/ASF file generated using VICON BodyLanguage
# -----------------------------------------------
:version 1.10
:name VICON
:units
  mass 1.0
  length 0.1
  angle deg
:documentation
   .ast/.asf automatically generated from VICON data using
   VICON BodyBuilder and BodyLanguage model FULLBODY5.MOD
:root
   order TX TY TZ RZ RY RX
   axis XYZ
   position 0 0 0  
   orientation 0 -0 0 
:bonedata
  begin
     id 1 
     name lhipjoint
     direction 0.969109 -0.218487 0.11442 
     length 0.544217 
     axis 0 -0 0  XYZ
  end
  begin
     id 2 
     name lfemur
     direction 0.173648 -0.984808 0  
     length 1.81499  
     axis 0 -0 10  XYZ
    dof rx ry rz
    limits (-180.0 180.0)
           (-180.0 180.0)
           (-180.0 180.0)
  end
  begin
     id 3 
     name ltibia
     direction 0.173515 -0.984831 0   
     length 1.55296   
     axis 0 -0 10   XYZ
    dof rx ry rz
    limits (-180.0 180.0)
           (-180.0 180.0)
           (-180.0 180.0)
  end
  begin
     id 4 
     name lfoot
     direction 7.36097e-012 -0.333012 0.942922   
     length 0.509062   
     axis -90 -1.73656e-015 10   XYZ
    dof rx ry rz
    limits (-180.0 180.0)
           (-180.0 180.0)
           (-180.0 180.0)
  end
  begin
     id 5 
     name ltoes
     direction 7.7847e-012 -4.42403e-011 1   
     length 0.249732   
     axis -90 -1.73656e-015 10   XYZ
    dof rx ry rz
    limits (-180.0 180.0)
           (-180.0 180.0)
           (-180.0 180.0)
  end
  begin
     id 6 
     name rhipjoint
     direction -0.966745 -0.226554 0.118645   
     length 0.524838  
     axis 0 -0 0  XYZ 
  end
  begin
     id 7 
     name rfemur
     direction -0.173648 -0.984808 0   
     length 1.84625   
     axis 0 -0 -10   XYZ
    dof rx ry rz
    limits (-180.0 180.0)
           (-180.0 180.0)
           (-180.0 180.0)
  end
  begin
     id 8 
     name rtibia
     direction -0.173714 -0.984796 0   
     length 1.577   
     axis 0 -0 -10   XYZ
    dof rx ry rz
    limits (-180.0 180.0)
           (-180.0 180.0)
           (-180.0 180.0)
 end
 begin
     id 9 
     name rfoot
     direction -0.0183819 -0.0406144 0.999006   
     length 0.490111  
     axis -90 1.73656e-015 -10   XYZ
    dof rx ry rz
    limits (-180.0 180.0)
           (-180.0 180.0)
           (-180.0 180.0)
  end
  begin
     id 10 
     name rtoes
     direction -7.79087e-012 -4.42375e-011 1   
     length 0.245053   
     axis -90 1.73656e-015 -10   XYZ
    dof rx ry rz
    limits (-180.0 180.0)
           (-180.0 180.0)
           (-180.0 180.0)
  end
  begin
     id 11 
     name lowerback
     direction -0.0664844 0.980601 0.184393   
     length 0.458979   
     axis 0 -0 0   XYZ
    dof rx ry rz
    limits (-180.0 180.0)
           (-180.0 180.0)
           (-180.0 180.0)
  end
  begin
     id 12 
     name upperback
     direction 0.0135995 0.999573 0.02588   
     length 0.463983   
     axis 0 -0 0   XYZ
    dof rx ry rz
    limits (-180.0 180.0)
           (-180.0 180.0)
           (-180.0 180.0)
  end
  begin
     id 13 
     name thorax
     direction 0.0468402 0.997311 -0.0563691   
     length 0.482746   
     axis 0 -0 0   XYZ
    dof rx ry rz
    limits (-180.0 180.0)
           (-180.0 180.0)
           (-180.0 180.0)
  end
  begin
     id 14 
     name lowerneck
     direction -0.00174311 0.988586 -0.150647   
     length 0.364383   
     axis 0 -0 0   XYZ
    dof rx ry rz
    limits (-180.0 180.0)
           (-180.0 180.0)
           (-180.0 180.0)
  end
  begin
     id 15 
     name upperneck
     direction -0.02653 0.999379 -0.0231908   
     length 0.361006   
     axis 0 -0 0   XYZ
    dof rx ry rz
    limits (-180.0 180.0)
           (-180.0 180.0)
           (-180.0 180.0)
  end
  begin
     id 16
     name head
     direction -0.00819207 0.999941 0.00714285  
     length 0.378714  
     axis 0 -0 0   XYZ
    dof rx ry rz
    limits (-180.0 180.0)
           (-180.0 180.0)
           (-180.0 180.0)
  end
  begin
     id 17 
     name lshoulderjoint
     direction 0.981627 -0.190809 0  
     length 0.612969  
     axis 0 -0 -11   XYZ
    dof rx ry rz
    limits (-180.0 180.0)
           (-180.0 180.0)
           (-180.0 180.0)
  end
  begin
     id 18 
     name lhumerus
     direction 0.48481 -0.87462 -9.72962e-027   
     length 1.19637   
     axis -180 5.14477e-009 -151   XYZ
    dof rx ry rz
    limits (-180.0 180.0)
           (-180.0 180.0)
           (-180.0 180.0)
  end
  begin
     id 19
     name lradius
     direction 0.48481 -0.87462 -2.35761e-026   
     length 0.637735   
     axis -180 5.14477e-009 -151   XYZ
    dof rx ry rz
    limits (-180.0 180.0)
           (-180.0 180.0)
           (-180.0 180.0)
  end
  begin
     id 20
     name lwrist
     direction 0.48481 -0.87462 -5.51856e-026   
     length 0.318868   
     axis -180 5.14477e-009 -151   XYZ
    dof rx ry rz
    limits (-180.0 180.0)
           (-180.0 180.0)
           (-180.0 180.0)
  end
  begin
     id 21 
     name lhand
     direction 0.477747 -0.861928 -0.169816   
     length 0.29526   
     axis -180 5.14477e-009 -151   XYZ
    dof rx ry rz
    limits (-180.0 180.0)
           (-180.0 180.0)
           (-180.0 180.0)
  end
  begin
     id 22 
     name rshoulderjoint
     direction -0.981627 -0.190809 0   
     length 0.572347  
     axis 0 -0 11   XYZ 
    dof rx ry rz
    limits (-180.0 180.0)
           (-180.0 180.0)
           (-180.0 180.0)
  end
  begin
     id 23 
     name rhumerus
     direction -0.48481 -0.87462 1.64836e-026  
     length 1.28846   
     axis 180 5.14477e-009 151   XYZ
    dof rx ry rz
    limits (-180.0 180.0)
           (-180.0 180.0)
           (-180.0 180.0)
  end
  begin
     id 24 
     name rradius
     direction -0.48481 -0.87462 2.86827e-026   
     length 0.62107   
     axis 180 5.14477e-009 151   XYZ
    dof rx ry rz
    limits (-180.0 180.0)
           (-180.0 180.0)
           (-180.0 180.0)
  end
  begin
     id 25 
     name rwrist
     direction -0.48481 -0.87462 5.20942e-026   
     length 0.310535   
     axis 180 5.14477e-009 151   XYZ
    dof rx ry rz
    limits (-180.0 180.0)
           (-180.0 180.0)
           (-180.0 180.0)
  end
  begin
     id 26
     name rhand
     direction -0.477664 -0.861515 -0.172133   
     length 0.291321   
     axis 180 5.14477e-009 151   XYZ
    dof rx ry rz
    limits (-180.0 180.0)
           (-180.0 180.0)
           (-180.0 180.0)
  end
:hierarchy
  begin
    root lhipjoint rhipjoint lowerback 
    lhipjoint lfemur
    lfemur ltibia
    ltibia lfoot
    lfoot ltoes
    rhipjoint rfemur
    rfemur rtibia
    rtibia rfoot
    rfoot rtoes
    lowerback upperback
    upperback thorax
    thorax lowerneck lshoulderjoint rshoulderjoint
    lowerneck upperneck
    upperneck head
    lshoulderjoint lhumerus
    lhumerus lradius
    lradius lwrist
    lwrist lhand
    rshoulderjoint rhumerus
    rhumerus rradius
    rradius rwrist
    rwrist rhand
  end

:FULLY-SPECIFIED
:DEGREES
1650
root -10.7116 3.83731 -0.449163 271.203 68.0321 90.0696
lowerback -28.3473 -2.68944 -5.90442
upperback -7.98278 -1.21656 1.64801
thorax 6.83967 -0.279484 4.87924
lowerneck 13.4649 -3.12341 1.55488
upperneck 7.44495 -3.43599 -5.28854
head -0.0341663 -1.45892 -1.79077
rshoulderjoint -2.2619 6.85128 -29.3199
rhumerus 347.355 -8.99457 -410.822
rradius 22.438 -5.56597e-015 -6.59965e-014
rwrist 3.79186e-013 8.20456 -1.63886e-013
rhand 8.85658 -6.99199 31.3084
lshoulderjoint -1.72547 -5.10568 29.701
lhumerus 350.02 26.7752 413.622
lradius 12.4741 -1.17681e-013 -7.196e-014
lwrist 3.95124e-013 -10.8752 -1.70033e-014
lhand 11.5226 8.87363 -31.5159
rfemur -16.6777 13.268 8.17069
rtibia -6.83819e-014 7.95139e-015 1.59028e-015
rfoot -177.427 -53.8099 161.413
rtoes -1.98785e-014 -2.57923e-014 4.8901e-014
lfemur -16.1998 -20.6317 -10.4198
ltibia -3.73715e-014 0 -7.95139e-016
lfoot -6.80778 7.14029 19.6813
ltoes 1.13034e-013 -5.87614e-014 -2.90226e-014
1651
root -10.711 3.83735 -0.449196 270.916 68.0077 90.3951
lowerback -28.3697 -2.67647 -5.92944
upperback -8.03983 -1.17761 1.57509
thorax 6.78042 -0.254119 4.82493
lowerneck 13.5087 -3.16916 1.63811
upperneck 7.51787 -3.47868 -5.26341
head -0.0205505 -1.47691 -1.79533
rshoulderjoint -2.23434 6.77971 -29.2887
rhumerus 347.233 -8.9731 -410.911
rradius 22.4168 -4.92986e-014 -1.98785e-014
rwrist 5.52735e-013 8.22064 -8.11428e-014
rhand 8.83074 -7.03048 31.3041
lshoulderjoint -1.72431 -5.07312 29.8006
lhumerus 350.321 25.5969 413.901
lradius 12.6838 2.54444e-014 -3.97569e-016
lwrist 4.14477e-013 -10.8184 6.1524e-014
lhand 11.2941 9.05634 -31.7783
rfemur -16.6757 13.1707 8.15316
rtibia -2.22639e-014 -1.43125e-014 0
rfoot -177.43 -53.6657 161.409
rtoes 2.94201e-014 -1.88572e-013 -1.98785e-015
lfemur -16.2326 -20.7491 -10.4212
ltibia -1.59028e-014 3.18055e-014 7.95139e-015
lfoot -6.7999 7.25473 19.6737
ltoes -7.03698e-014 -5.79578e-014 -9.74045e-015
1652
root -10.7106 3.83746 -0.448951 270.63 67.9959 90.6814
lowerback -28.4177 -2.67444 -5.96998
upperback -8.06107 -1.15542 1.56863
thorax 6.77717 -0.240754 4.84898
lowerneck 13.5706 -3.18894 1.61797
upperneck 7.5215 -3.50491 -5.24281
head -0.0292948 -1.48877 -1.78339
rshoulderjoint -2.23172 6.77498 -29.2806
rhumerus 347.134 -9.02885 -410.923
rradius 22.3904 9.10434e-014 -4.92986e-014
rwrist -8.64453e-013 8.22119 -4.01697e-014
rhand 8.81834 -7.04259 31.2811
lshoulderjoint -1.72453 -5.08667 29.7563
lhumerus 350.646 24.3907 414.134
lradius 12.9737 -5.12069e-013 8.66701e-014
lwrist -6.5377e-013 -10.6675 2.74292e-013
lhand 11.0044 9.02373 -32.0968
rfemur -16.6677 13.0891 8.17844
rtibia -2.54444e-014 -1.27222e-014 1.59028e-015
rfoot -177.458 -53.5308 161.411
rtoes 2.8625e-014 -1.63401e-013 7.55382e-015
lfemur -16.2537 -20.8511 -10.3874
ltibia 2.8625e-014 2.54444e-014 0
lfoot -6.79374 7.30913 19.6731
ltoes 3.75206e-014 -5.94642e-014 3.49861e-014
1653
root -10.7102 3.83763 -0.448567 270.344 68.0041 90.9499
lowerback -28.4118 -2.66163 -5.97814
upperback -8.09202 -1.13048 1.53966
thorax 6.73602 -0.224801 4.82952
lowerneck 13.6326 -3.20552 1.63307
upperneck 7.51962 -3.52372 -5.19462
head -0.0396874 -1.49664 -1.76894
rshoulderjoint -2.22096 6.75922 -29.2376
rhumerus 347.018 -9.04481 -410.951
rradius 22.3962 -5.36719e-014 2.46493e-014
rwrist -3.14881e-013 8.1583 1.28523e-013
rhand 8.79764 -7.00495 31.25
lshoulderjoint -1.72695 -5.08295 29.7936
lhumerus 350.949 23.1498 414.385
lradius 13.2487 2.3218e-013 -6.99722e-014
lwrist -3.44607e-013 -10.5975 -3.0416e-013
lhand 10.6745 8.9946 -32.4331
rfemur -16.6391 13.0162 8.22814
rtibia -8.74653e-015 2.8625e-014 1.19271e-014
rfoot -177.47 -53.3963 161.424
rtoes -1.03368e-014 2.57923e-014 1.04958e-013
lfemur -16.2545 -20.9457 -10.343
ltibia -6.36111e-015 -2.8625e-014 -3.18055e-015
lfoot -6.79277 7.30837 19.6746
ltoes 8.3738e-014 1.6901e-014 -1.33186e-014
1654
root -10.7097 3.83766 -0.448173 270.038 68.0192 91.2416
lowerback -28.4086 -2.65662 -5.99887
upperback -8.1154 -1.11344 1.52129
thorax 6.70599 -0.2135 4.82664
lowerneck 13.6929 -3.22835 1.64693
upperneck 7.5151 -3.55053 -5.17148
head -0.0515311 -1.50825 -1.76206
rshoulderjoint -2.21739 6.73833 -29.2627
rhumerus 346.918 -9.1053 -411.023
rradius 22.3811 -1.47101e-014 2.3059e-014
rwrist 4.4656e-013 8.10685 -1.4457e-014
rhand 8.79182 -6.94425 31.1933
lshoulderjoint -1.74318 -5.13048 29.7949
lhumerus 351.232 21.9098 414.6
lradius 13.5154 1.27222e-013 1.65389e-013
lwrist 3.07246e-013 -10.4476 3.218e-013
lhand 10.4125 8.96666 -32.7207
rfemur -16.5989 12.9356 8.28027
rtibia 1.59028e-014 2.8625e-014 5.96354e-015
rfoot -177.479 -53.2637 161.422
rtoes 3.18055e-014 1.39671e-013 3.77691e-014
lfemur -16.2473 -21.0492 -10.304
ltibia 5.88403e-014 -6.36111e-014 -7.15625e-015
lfoot -6.78383 7.38886 19.6742
ltoes 1.00038e-013 3.01741e-014 1.19271e-015
1655
root -10.7092 3.83767 -0.447807 269.721 68.0486 91.5602
lowerback -28.3916 -2.65988 -6.02669
upperback -8.13257 -1.10592 1.49214
thorax 6.67737 -0.207527 4.81246
lowerneck 13.7146 -3.2383 1.65937
upperneck 7.54685 -3.55912 -5.13536
head -0.0444555 -1.51176 -1.75209
rshoulderjoint -2.21605 6.73747 -29.2545
rhumerus 346.812 -9.14668 -411.076
rradius 22.3807 -8.5875e-014 9.30312e-014
rwrist 6.13563e-013 8.07049 1.42147e-013
rhand 8.76205 -6.91125 31.1299
lshoulderjoint -1.74969 -5.13589 29.8418
lhumerus 351.448 20.9924 414.795
lradius 13.833 2.41722e-013 -1.43523e-013
lwrist 6.11315e-013 -10.476 -2.84633e-013
lhand 10.2707 8.84945 -32.8836
rfemur -16.5447 12.845 8.32056
rtibia -1.74931e-014 3.49861e-014 9.54166e-015
rfoot -177.534 -53.1407 161.443
rtoes -3.65764e-014 1.1045e-013 1.74931e-013
lfemur -16.2209 -21.1632 -10.2868
ltibia 3.18055e-015 -4.13472e-014 -1.51076e-014
lfoot -6.77161 7.39045 19.6766
ltoes 2.24304e-013 5.45338e-015 -8.15017e-015
1656
root -10.7087 3.83768 -0.447218 269.383 68.0714 91.8804
lowerback -28.3781 -2.65883 -6.04037
upperback -8.14463 -1.09658 1.45941
thorax 6.65583 -0.201175 4.78671
lowerneck 13.7393 -3.25336 1.71599
upperneck 7.53552 -3.57176 -5.11763
head -0.053413 -1.51629 -1.75539
rshoulderjoint -2.20939 6.74208 -29.1917
rhumerus 346.713 -9.21725 -411.091
rradius 22.3785 3.97569e-016 8.50798e-014
rwrist -5.52434e-013 8.00212 2.27237e-013
rhand 8.77421 -6.83958 31.052
lshoulderjoint -1.7589 -5.14768 29.8939
lhumerus 351.659 20.0171 414.99
lradius 14.1996 1.90833e-014 -2.38542e-014
lwrist -5.78871e-013 -10.4231 -1.62504e-013
lhand 10.1124 8.73505 -33.0374
rfemur -16.4905 12.7552 8.38311
rtibia 5.32743e-014 -1.59028e-015 1.98785e-015
rfoot -177.564 -53.0159 161.454
rtoes 4.29375e-014 -5.21064e-014 1.59028e-014
lfemur -16.2037 -21.2766 -10.2445
ltibia 5.96354e-014 6.36111e-015 -3.18055e-015
lfoot -6.75346 7.31693 19.6839
ltoes -2.88238e-014 2.31161e-014 2.20651e-014
1657
root -10.7082 3.83776 -0.446633 269.042 68.0911 92.225
lowerback -28.3804 -2.68105 -6.08803
upperback -8.15217 -1.10798 1.44124
thorax 6.65002 -0.205506 4.79015
lowerneck 13.7546 -3.26877 1.75584
upperneck 7.54194 -3.58506 -5.13261
head -0.0556195 -1.52118 -1.76654
rshoulderjoint -2.21555 6.76222 -29.1885
rhumerus 346.635 -9.18995 -411.149
rradius 22.3539 -3.65764e-014 -9.78021e-014
rwrist 1.36169e-012 7.96501 -3.47649e-013
rhand 8.73825 -6.86004 31.0032
lshoulderjoint -1.76615 -5.16416 29.9101
lhumerus 351.869 18.9001 415.193
lradius 14.6335 1.20861e-013 -1.2762e-013
lwrist 1.26692e-012 -10.2296 -8.16062e-014
lhand 9.85472 8.63767 -33.2254
rfemur -16.4408 12.6551 8.42137
rtibia -8.50798e-014 4.77083e-015 1.39149e-014
rfoot -177.578 -52.8836 161.459
rtoes -1.56642e-013 -2.16303e-013 2.19458e-013
lfemur -16.1899 -21.3981 -10.2184
ltibia -1.145e-013 1.59028e-014 -1.19271e-014
lfoot -6.72738 7.39425 19.6783
ltoes 3.00687e-013 -1.09144e-013 -8.54774e-015
1658
root -10.7076 3.83763 -0.446073 268.684 68.1097 92.5683
lowerback -28.3884 -2.70511 -6.12006
upperback -8.15365 -1.12733 1.43585
thorax 6.65486 -0.214312 4.79624
lowerneck 13.8028 -3.26397 1.74828
upperneck 7.5001 -3.5818 -5.0996
head -0.0757374 -1.51909 -1.75395
rshoulderjoint -2.2219 6.77667 -29.2012
rhumerus 346.57 -9.21767 -411.195
rradius 22.3385 -3.61788e-014 -5.24792e-014
rwrist 8.51e-013 7.93728 -1.91074e-013
rhand 8.74948 -6.82151 30.9293
lshoulderjoint -1.77005 -5.16815 29.9353
lhumerus 352.06 17.9521 415.388
lradius 15.0738 -3.02153e-014 -5.20816e-014
lwrist 8.33454e-013 -10.0825 5.33023e-014
lhand 9.62975 8.45353 -33.3655
rfemur -16.3885 12.5557 8.47786
rtibia -3.81667e-014 -3.18055e-015 1.98785e-015
rfoot -177.561 -52.7441 161.426
rtoes -2.62396e-014 -4.24405e-014 6.08281e-014
lfemur -16.1731 -21.5207 -10.1801
ltibia 6.36111e-015 6.36111e-015 -3.18055e-015
lfoot -6.72261 7.42147 19.6903
ltoes 1.0051e-013 -5.68124e-014 -1.35174e-014
1659
root -10.707 3.83756 -0.44537 268.329 68.1277 92.8791
lowerback -28.4003 -2.7296 -6.13326
upperback -8.14406 -1.15488 1.44846
thorax 6.67521 -0.228296 4.80891
lowerneck 13.778 -3.25754 1.74841
upperneck 7.51633 -3.57254 -5.09507
head -0.0660535 -1.51487 -1.75324
rshoulderjoint -2.23085 6.79847 -29.2152
rhumerus 346.526 -9.23204 -411.232
rradius 22.3344 1.19271e-014 5.08889e-014
rwrist -2.72929e-013 7.88735 1.31648e-013
rhand 8.81363 -6.7681 30.8693
lshoulderjoint -1.76313 -5.1526 29.9193
lhumerus 352.271 16.9849 415.55
lradius 15.4997 8.90555e-014 7.95139e-016
lwrist -2.74463e-013 -9.93504 -9.28331e-014
lhand 9.36355 8.29282 -33.4963
rfemur -16.3399 12.4696 8.56453
rtibia 4.29375e-014 3.18055e-015 0
rfoot -177.555 -52.61 161.414
rtoes 6.36111e-014 1.48616e-013 -3.89618e-014
lfemur -16.1625 -21.6289 -10.1068
ltibia 1.35174e-014 3.18055e-015 4.77083e-015
lfoot -6.70812 7.43526 19.6921
ltoes -2.97929e-014 7.8784e-015 2.06736e-014
1660
root -10.7063 3.83741 -0.444597 268.002 68.1431 93.1875
lowerback -28.4283 -2.74972 -6.16564
upperback -8.13159 -1.16808 1.43905
thorax 6.70452 -0.235775 4.81286
lowerneck 13.7912 -3.26249 1.76034
upperneck 7.49509 -3.57909 -5.07072
head -0.0749067 -1.5179 -1.74687
rshoulderjoint -2.22964 6.78765 -29.2329
rhumerus 346.493 -9.1287 -411.306
rradius 22.324 -1.35174e-014 -8.98507e-014
rwrist 6.16478e-013 7.87328 -2.32785e-013
rhand 8.84719 -6.83968 30.8604
lshoulderjoint -1.76933 -5.16464 29.9402
lhumerus 352.469 16.0032 415.709
lradius 15.905 4.45278e-014 -3.81667e-014
lwrist 6.13054e-013 -9.69117 1.12931e-014
lhand 9.15213 8.08985 -33.6019
rfemur -16.289 12.3849 8.62592
rtibia -4.85035e-014 -3.18055e-015 7.55382e-015
rfoot -177.525 -52.4732 161.366
rtoes -1.21656e-013 -2.23931e-013 1.21656e-013
lfemur -16.1497 -21.7367 -10.0616
ltibia -7.71285e-014 6.36111e-015 3.18055e-015
lfoot -6.69808 7.46905 19.7024
ltoes 1.67178e-013 -9.82454e-014 -8.74653e-015
1661
root -10.7046 3.8375 -0.442862 267.472 68.2451 93.7592
lowerback -28.4066 -2.84088 -6.34019
upperback -8.08922 -1.24111 1.44548
thorax 6.75294 -0.275646 4.89672
lowerneck 13.7833 -3.2581 1.74847
upperneck 7.51303 -3.5736 -5.05684
head -0.0670021 -1.51552 -1.74071
rshoulderjoint -2.23211 6.79145 -29.2424
rhumerus 346.457 -9.27676 -411.319
rradius 22.3087 -2.38542e-014 4.37326e-014
rwrist -6.81163e-013 8.15324 2.00814e-013
rhand 8.87309 -6.96074 30.8012
lshoulderjoint -1.75311 -5.11577 29.9448
lhumerus 352.679 14.9342 415.883
lradius 16.301 5.725e-014 -3.65764e-014
lwrist -6.67213e-013 -9.33601 -2.11929e-013
lhand 8.98266 7.82777 -33.7279
rfemur -16.1014 12.2155 8.68685
rtibia -1.35174e-014 1.11319e-014 3.57812e-015
rfoot -177.432 -52.3449 161.285
rtoes 1.1609e-013 1.23197e-013 -1.63003e-014
lfemur -16.0247 -21.9348 -10.0822
ltibia 4.69132e-014 -1.27222e-014 3.18055e-015
lfoot -6.69295 7.42134 19.7145
ltoes -6.99971e-014 2.74253e-014 1.78906e-015
